<?xml version="1.0" encoding="utf-8"?>
<!-- Generator: Adobe Illustrator 19.0.0, SVG Export Plug-In . SVG Version: 6.00 Build 0)  -->
<svg version="1.1" id="Calque_1" xmlns="http://www.w3.org/2000/svg" xmlns:xlink="http://www.w3.org/1999/xlink" x="0px" y="0px"
	 width="220px" height="150px" viewBox="0 0 220 150" style="enable-background:new 0 0 220 150;" xml:space="preserve">
<style type="text/css">
	.st0{fill:#054F9E;}
	.st1{fill:#039BE0;}
</style>
<g>
	<path class="st0" d="M167.2,57.5c13.2-6.2,28,3.5,27.8,18c-0.2,10.9-10,19.7-20.8,18.8c-2.4-0.2-4.7-0.8-6.9-1.8
		c-0.6-0.4-1.3-0.8-1.9-1.2c-2.3-1.4-4.1-3.4-5.8-5.3c-0.1-0.2-0.2-0.4-0.3-0.5c-2.8-4.4-3.7-9.2-2.8-14.3c0.5-2.7,1.7-5,3-7.3
		C161.7,61.3,164.2,59.1,167.2,57.5z M175.1,63.9c-1.4-0.1-2.7,0.2-3.9,0.8c-1.4,0.7-3.1,1.3-3.7,3c-0.5,0-0.7,0.4-0.9,0.7
		c-2,2.8-2.7,5.9-1.8,9.2c0.5,1.8,1,3.5,2.7,4.6c0,0.4,0.3,0.7,0.6,0.9c2,1.8,4.3,2.9,7,2.8c1.2,0.1,2.4-0.1,3.6-0.4
		c5.3-1.6,8.7-6.8,7.9-12.2C185.8,67.8,181,63.8,175.1,63.9z"/>
	<path class="st0" d="M97.8,76.2c-3.4,0-6.8,0-10.1,0c-1,0-1.2-0.3-0.8-1.2c0.6-1.5,1.8-2.4,3.7-2.4c3.3,0,6.7,0,10,0
		c0.9,0,1.3-0.1,1.1-1.2c-0.6-3.6-3.1-5.9-7.2-6.5c-5.4-0.8-10,1.6-11.3,6.1c-1.9,6.6,0.4,12.2,8.3,13.8c3.8,0.8,7.6,0.7,11.4-0.3
		c0.8-0.2,1.7-0.4,2.5-0.4c0.6,0,1.2,0.2,1.7,0.6c0.5,0.4,1.1,1,1.1,1.6c0,0.6-0.9,0.6-1.4,0.8c-5.6,2.2-11.3,3.2-17.3,2.2
		c-4.6-0.8-8.7-2.4-11.4-6.5c-4.9-7.2-2.3-16.8,5.7-20.3c5.2-2.3,10.7-2.4,16.1-0.8c5,1.5,7.7,5.2,8.6,10.2c0.2,1,0.2,2.1,0.4,3.2
		c0.1,0.9-0.1,1.2-1,1.1C104.5,76.2,101.2,76.2,97.8,76.2C97.8,76.2,97.8,76.2,97.8,76.2z"/>
	<path class="st1" d="M167.2,57.5c-3,1.6-5.5,3.8-7.7,6.4c-2.9-0.1-5.4,0.7-7.6,2.5c-3.7,3-5.1,8.2-3.3,12.6c1.8,4.5,6.3,7.4,11,7.1
		c1.8,2,3.5,4,5.8,5.3c0.6,0.4,1.3,0.8,1.9,1.2c-4.2,1.8-8.5,2.4-13,1.3c-13.8-3.5-19.3-19.6-10.6-30.9
		C149.2,55.9,159.1,53.6,167.2,57.5z"/>
	<path class="st0" d="M50.2,61.3c-0.9,0.9-1.6,1.8-2,2.9c-0.2,0.6-0.7,0.6-1.1,0.6c-2.7,0-5.3,0-8,0c-1.4,0-2.7,0.1-4,0.8
		c-2.1,1.2-2.2,3.2-0.2,4.6c2,1.3,4.4,1.9,6.7,2.5c2.3,0.7,4.6,1.4,6.8,2.4c0.9,0.4,1.7,0.9,2.5,1.5c3.3,2.6,3.3,6.9,0.1,9.5
		c-2.1,1.8-4.7,2.5-7.3,3c-5.9,1-11.8,0.7-17.6-1c-1.2-0.4-1.3-0.5-0.4-1.5c1.2-1.4,2.9-1.5,4.5-1.3c1.9,0.3,3.7,0.6,5.6,0.7
		c2.3,0.1,4.5,0,6.6-0.7c0.7-0.2,1.4-0.5,2-0.9c2.7-1.8,2.5-4.5-0.3-6c-2.3-1.2-4.8-1.8-7.3-2.5c-2.2-0.6-4.4-1.3-6.5-2.4
		c-1.7-0.9-3.1-2-3.6-4c-0.5-2.2,0.1-4,1.8-5.5c2.2-1.8,4.9-2.5,7.6-2.7C40.8,61,45.5,61.3,50.2,61.3z"/>
	<path class="st0" d="M134.4,61.3c-1,0.9-1.7,1.9-2.2,3c-0.2,0.5-0.6,0.5-1.1,0.5c-2.9,0-5.7,0-8.6,0c-0.8,0-1.6,0-2.4,0.4
		c-1.2,0.5-2,1.4-2,2.8c0,1.3,0,2.6,0,3.9c0,0.7,0.2,0.9,0.9,0.8c3.2,0,6.4,0,9.5,0c1,0,1.1,0.3,0.8,1.1c-0.5,1.5-1.8,2.5-3.7,2.5
		c-2.1,0-4.2,0.1-6.4,0c-0.9,0-1.2,0.3-1.2,1.2c0,2.2,0.1,4.4-0.4,6.6c-0.8,3.1-2.5,4.7-5.1,5.1c-0.9,0.1-1.2-0.1-1.2-1
		c0-6.6,0-13.1,0-19.7c0-4.2,2-6.7,6.3-7C123.3,61,128.8,61.3,134.4,61.3z"/>
	<path class="st0" d="M80.2,61.4c-1.6,0.9-3.1,1.9-4.3,3.2c-0.3,0.3-0.7,0.3-1.1,0.3c-2.4,0-4.8,0-7.2,0c-0.9,0-1.1,0.2-1.1,1.1
		c0,4.9,0,9.7,0,14.6c0,1.9-0.2,3.7-1.1,5.4c-0.9,1.7-2.3,2.9-4.3,3.2c-1,0.2-1.3,0-1.3-1.1c0.1-7.3,0-14.6,0.1-21.9
		c0-1-0.2-1.3-1.3-1.3c-1.9,0.1-3.8,0-5.8,0.1c-0.8,0-1.1-0.1-0.7-0.9c0.8-1.9,1.8-2.6,3.9-2.6c7.9,0,15.9,0,23.8,0
		C79.9,61.2,79.9,61.3,80.2,61.4z"/>
	<path class="st1" d="M167.5,67.7c0.7-1.7,2.3-2.3,3.7-3c1.2-0.6,2.5-0.9,3.9-0.8c0,0.4,0.3,0.7,0.5,1.1c3.3,5.8,3.7,11.7,1.1,17.9
		c-0.5,1.1-1.3,2-1.6,3.2c-2.7,0-5-1-7-2.8c-0.3-0.3-0.6-0.5-0.6-0.9c0-0.3,0.3-0.5,0.4-0.7c1.7-2.4,2.5-5.1,2.1-8.1
		C169.7,71.3,168.6,69.5,167.5,67.7z"/>
</g>
</svg>
